<?xml version="1.0" encoding="UTF-8" standalone="no"?>
<!-- Generator: Adobe Illustrator 19.1.0, SVG Export Plug-In . SVG Version: 6.00 Build 0)  -->

<svg
   xmlns:dc="http://purl.org/dc/elements/1.1/"
   xmlns:cc="http://creativecommons.org/ns#"
   xmlns:rdf="http://www.w3.org/1999/02/22-rdf-syntax-ns#"
   xmlns:svg="http://www.w3.org/2000/svg"
   xmlns="http://www.w3.org/2000/svg"
   xmlns:sodipodi="http://sodipodi.sourceforge.net/DTD/sodipodi-0.dtd"
   xmlns:inkscape="http://www.inkscape.org/namespaces/inkscape"
   version="1.1"
   id="Layer_1"
   x="0px"
   y="0px"
   viewBox="0 0 250 250"
   style="enable-background:new 0 0 250 250;"
   xml:space="preserve"
   inkscape:version="0.48.5 r10040"
   width="100%"
   height="100%"
   sodipodi:docname="angular.svg"><metadata
     id="metadata3344"><rdf:RDF><cc:Work
         rdf:about=""><dc:format>image/svg+xml</dc:format><dc:type
           rdf:resource="http://purl.org/dc/dcmitype/StillImage" /><dc:title></dc:title></cc:Work></rdf:RDF></metadata><defs
     id="defs3342" /><sodipodi:namedview
     pagecolor="#ffffff"
     bordercolor="#666666"
     borderopacity="1"
     objecttolerance="10"
     gridtolerance="10"
     guidetolerance="10"
     inkscape:pageopacity="0"
     inkscape:pageshadow="2"
     inkscape:window-width="1041"
     inkscape:window-height="697"
     id="namedview3340"
     showgrid="false"
     inkscape:zoom="2.16"
     inkscape:cx="199.59742"
     inkscape:cy="125"
     inkscape:window-x="0"
     inkscape:window-y="0"
     inkscape:window-maximized="0"
     inkscape:current-layer="Layer_1" /><style
     type="text/css"
     id="style3330">
	.st0{fill:#DD0031;}
	.st1{fill:#C3002F;}
	.st2{fill:#FFFFFF;}
</style><polygon
     style="fill:#dd0031"
     id="polygon3334"
     points="125,30 31.9,63.2 46.1,186.3 125,230 125,230 125,230 203.9,186.3 218.1,63.2 125,30 125,30 "
     class="st0" /><polygon
     style="fill:#c3002f"
     id="polygon3336"
     points="125,52.1 125,153.4 125,153.4 125,230 125,230 203.9,186.3 218.1,63.2 125,30 125,30 125,52.2 "
     class="st1" /><g
     style="fill:#00ffff;fill-opacity:1"
     id="g3197"
     transform="matrix(0.39235781,0,0,0.37811794,63.362013,104.37454)"><rect
       x="0"
       y="0"
       width="4"
       height="100"
       id="rect3199"
       style="fill:#00ffff;fill-opacity:1" /><rect
       x="6"
       y="0"
       width="2"
       height="100"
       id="rect3201"
       style="fill:#00ffff;fill-opacity:1" /><rect
       x="12"
       y="0"
       width="2"
       height="100"
       id="rect3203"
       style="fill:#00ffff;fill-opacity:1" /><rect
       x="22"
       y="0"
       width="4"
       height="100"
       id="rect3205"
       style="fill:#00ffff;fill-opacity:1" /><rect
       x="34"
       y="0"
       width="2"
       height="100"
       id="rect3207"
       style="fill:#00ffff;fill-opacity:1" /><rect
       x="38"
       y="0"
       width="2"
       height="100"
       id="rect3209"
       style="fill:#00ffff;fill-opacity:1" /><rect
       x="44"
       y="0"
       width="2"
       height="100"
       id="rect3211"
       style="fill:#00ffff;fill-opacity:1" /><rect
       x="50"
       y="0"
       width="4"
       height="100"
       id="rect3213"
       style="fill:#00ffff;fill-opacity:1" /><rect
       x="56"
       y="0"
       width="2"
       height="100"
       id="rect3215"
       style="fill:#00ffff;fill-opacity:1" /><rect
       x="66"
       y="0"
       width="8"
       height="100"
       id="rect3217"
       style="fill:#00ffff;fill-opacity:1" /><rect
       x="78"
       y="0"
       width="2"
       height="100"
       id="rect3219"
       style="fill:#00ffff;fill-opacity:1" /><rect
       x="84"
       y="0"
       width="2"
       height="100"
       id="rect3221"
       style="fill:#00ffff;fill-opacity:1" /><rect
       x="88"
       y="0"
       width="2"
       height="100"
       id="rect3223"
       style="fill:#00ffff;fill-opacity:1" /><rect
       x="94"
       y="0"
       width="4"
       height="100"
       id="rect3225"
       style="fill:#00ffff;fill-opacity:1" /><rect
       x="100"
       y="0"
       width="6"
       height="100"
       id="rect3227"
       style="fill:#00ffff;fill-opacity:1" /><rect
       x="110"
       y="0"
       width="2"
       height="100"
       id="rect3229"
       style="fill:#00ffff;fill-opacity:1" /><rect
       x="116"
       y="0"
       width="2"
       height="100"
       id="rect3231"
       style="fill:#00ffff;fill-opacity:1" /><rect
       x="126"
       y="0"
       width="4"
       height="100"
       id="rect3233"
       style="fill:#00ffff;fill-opacity:1" /><rect
       x="132"
       y="0"
       width="2"
       height="100"
       id="rect3235"
       style="fill:#00ffff;fill-opacity:1" /><rect
       x="138"
       y="0"
       width="2"
       height="100"
       id="rect3237"
       style="fill:#00ffff;fill-opacity:1" /><rect
       x="142"
       y="0"
       width="4"
       height="100"
       id="rect3239"
       style="fill:#00ffff;fill-opacity:1" /><rect
       x="154"
       y="0"
       width="2"
       height="100"
       id="rect3241"
       style="fill:#00ffff;fill-opacity:1" /><rect
       x="160"
       y="0"
       width="2"
       height="100"
       id="rect3243"
       style="fill:#00ffff;fill-opacity:1" /><rect
       x="166"
       y="0"
       width="8"
       height="100"
       id="rect3245"
       style="fill:#00ffff;fill-opacity:1" /><rect
       x="176"
       y="0"
       width="2"
       height="100"
       id="rect3247"
       style="fill:#00ffff;fill-opacity:1" /><rect
       x="186"
       y="0"
       width="2"
       height="100"
       id="rect3249"
       style="fill:#00ffff;fill-opacity:1" /><rect
       x="190"
       y="0"
       width="4"
       height="100"
       id="rect3251"
       style="fill:#00ffff;fill-opacity:1" /><rect
       x="198"
       y="0"
       width="2"
       height="100"
       id="rect3253"
       style="fill:#00ffff;fill-opacity:1" /><rect
       x="206"
       y="0"
       width="8"
       height="100"
       id="rect3255"
       style="fill:#00ffff;fill-opacity:1" /><rect
       x="216"
       y="0"
       width="2"
       height="100"
       id="rect3257"
       style="fill:#00ffff;fill-opacity:1" /><rect
       x="220"
       y="0"
       width="2"
       height="100"
       id="rect3259"
       style="fill:#00ffff;fill-opacity:1" /><rect
       x="230"
       y="0"
       width="2"
       height="100"
       id="rect3261"
       style="fill:#00ffff;fill-opacity:1" /><rect
       x="236"
       y="0"
       width="4"
       height="100"
       id="rect3263"
       style="fill:#00ffff;fill-opacity:1" /><rect
       x="242"
       y="0"
       width="2"
       height="100"
       id="rect3265"
       style="fill:#00ffff;fill-opacity:1" /><rect
       x="246"
       y="0"
       width="4"
       height="100"
       id="rect3267"
       style="fill:#00ffff;fill-opacity:1" /><rect
       x="254"
       y="0"
       width="2"
       height="100"
       id="rect3269"
       style="fill:#00ffff;fill-opacity:1" /><rect
       x="264"
       y="0"
       width="8"
       height="100"
       id="rect3271"
       style="fill:#00ffff;fill-opacity:1" /><rect
       x="276"
       y="0"
       width="2"
       height="100"
       id="rect3273"
       style="fill:#00ffff;fill-opacity:1" /><rect
       x="282"
       y="0"
       width="2"
       height="100"
       id="rect3275"
       style="fill:#00ffff;fill-opacity:1" /><rect
       x="286"
       y="0"
       width="4"
       height="100"
       id="rect3277"
       style="fill:#00ffff;fill-opacity:1" /><rect
       x="296"
       y="0"
       width="6"
       height="100"
       id="rect3279"
       style="fill:#00ffff;fill-opacity:1" /><rect
       x="304"
       y="0"
       width="2"
       height="100"
       id="rect3281"
       style="fill:#00ffff;fill-opacity:1" /><rect
       x="308"
       y="0"
       width="4"
       height="100"
       id="rect3283"
       style="fill:#00ffff;fill-opacity:1" /><text
       style="text-anchor:middle;fill:#00ffff;fill-opacity:1"
       x="156"
       y="122"
       id="text3285">ngx-barcode</text>
</g></svg>